<mxfile host="app.diagrams.net" modified="2023-05-03T19:15:08.377Z" agent="Mozilla/5.0 (Macintosh; Intel Mac OS X 10_15_7) AppleWebKit/605.1.15 (KHTML, like Gecko) Version/16.4 Safari/605.1.15" version="21.2.6" etag="TJ6xLJG11EQvcHFHH6gD" type="github">
  <diagram name="Page-1" id="oUsHI9VMvFRvxBb5vOWC">
    <mxGraphModel>
      <root>
        <mxCell id="0" />
        <mxCell id="1" parent="0" />
      </root>
    </mxGraphModel>
  </diagram>
</mxfile>
